<?xml version="1.0" encoding="UTF-8" standalone="no"?>
<!-- Created with Inkscape (http://www.inkscape.org/) -->

<svg
   width="194.19531"
   height="62.365318"
   viewBox="0 0 51.380842 16.500824"
   version="1.1"
   id="svg5"
   inkscape:version="1.2.2 (1:1.2.2+202212051552+b0a8486541)"
   sodipodi:docname="logo.svg"
   xml:space="preserve"
   xmlns:inkscape="http://www.inkscape.org/namespaces/inkscape"
   xmlns:sodipodi="http://sodipodi.sourceforge.net/DTD/sodipodi-0.dtd"
   xmlns="http://www.w3.org/2000/svg"
   xmlns:svg="http://www.w3.org/2000/svg"><sodipodi:namedview
     id="namedview7"
     pagecolor="#cecece"
     bordercolor="#eeeeee"
     borderopacity="1"
     inkscape:showpageshadow="0"
     inkscape:pageopacity="0"
     inkscape:pagecheckerboard="0"
     inkscape:deskcolor="#505050"
     inkscape:document-units="mm"
     showgrid="false"
     inkscape:zoom="3.0265273"
     inkscape:cx="78.472778"
     inkscape:cy="26.432936"
     inkscape:window-width="1920"
     inkscape:window-height="1031"
     inkscape:window-x="0"
     inkscape:window-y="25"
     inkscape:window-maximized="1"
     inkscape:current-layer="layer1" /><defs
     id="defs2"><inkscape:path-effect
       effect="offset"
       id="path-effect2848"
       is_visible="true"
       lpeversion="1.2"
       linejoin_type="miter"
       unit="mm"
       offset="1"
       miter_limit="4"
       attempt_force_join="false"
       update_on_knot_move="true" /><inkscape:path-effect
       effect="offset"
       id="path-effect2824"
       is_visible="true"
       lpeversion="1.2"
       linejoin_type="miter"
       unit="mm"
       offset="1"
       miter_limit="4"
       attempt_force_join="false"
       update_on_knot_move="true" /><inkscape:path-effect
       effect="offset"
       id="path-effect2818"
       is_visible="true"
       lpeversion="1.2"
       linejoin_type="round"
       unit="mm"
       offset="1"
       miter_limit="4"
       attempt_force_join="false"
       update_on_knot_move="true" /><inkscape:path-effect
       effect="offset"
       id="path-effect8826"
       is_visible="true"
       lpeversion="1.2"
       linejoin_type="miter"
       unit="mm"
       offset="1"
       miter_limit="4"
       attempt_force_join="false"
       update_on_knot_move="true" /><inkscape:path-effect
       effect="offset"
       id="path-effect8796"
       is_visible="true"
       lpeversion="1.2"
       linejoin_type="miter"
       unit="mm"
       offset="1"
       miter_limit="4"
       attempt_force_join="false"
       update_on_knot_move="true" /><inkscape:path-effect
       effect="offset"
       id="path-effect8790"
       is_visible="true"
       lpeversion="1.2"
       linejoin_type="round"
       unit="mm"
       offset="1"
       miter_limit="4"
       attempt_force_join="false"
       update_on_knot_move="true" /><inkscape:path-effect
       effect="offset"
       id="path-effect8136"
       is_visible="true"
       lpeversion="1.2"
       linejoin_type="miter"
       unit="mm"
       offset="1"
       miter_limit="4"
       attempt_force_join="false"
       update_on_knot_move="true" /><inkscape:path-effect
       effect="offset"
       id="path-effect8070"
       is_visible="true"
       lpeversion="1.2"
       linejoin_type="miter"
       unit="mm"
       offset="1"
       miter_limit="4"
       attempt_force_join="false"
       update_on_knot_move="true" /><inkscape:path-effect
       effect="offset"
       id="path-effect8066"
       is_visible="true"
       lpeversion="1.2"
       linejoin_type="miter"
       unit="mm"
       offset="0"
       miter_limit="4"
       attempt_force_join="false"
       update_on_knot_move="true" /><inkscape:path-effect
       effect="bspline"
       id="path-effect3180"
       is_visible="true"
       lpeversion="1"
       weight="33.333333"
       steps="2"
       helper_size="0"
       apply_no_weight="true"
       apply_with_weight="true"
       only_selected="false" /><inkscape:path-effect
       effect="bspline"
       id="path-effect3176"
       is_visible="true"
       lpeversion="1"
       weight="33.333333"
       steps="2"
       helper_size="0"
       apply_no_weight="true"
       apply_with_weight="true"
       only_selected="false" /><inkscape:path-effect
       effect="powerclip"
       id="path-effect2939"
       is_visible="true"
       lpeversion="1"
       inverse="true"
       flatten="false"
       hide_clip="false"
       message="Use fill-rule evenodd on &lt;b&gt;fill and stroke&lt;/b&gt; dialog if no flatten result after convert clip to paths." /><inkscape:path-effect
       effect="powerclip"
       id="path-effect2887"
       is_visible="true"
       lpeversion="1"
       inverse="true"
       flatten="false"
       hide_clip="false"
       message="Use fill-rule evenodd on &lt;b&gt;fill and stroke&lt;/b&gt; dialog if no flatten result after convert clip to paths." /><inkscape:path-effect
       effect="bspline"
       id="path-effect2406"
       is_visible="true"
       lpeversion="1"
       weight="33.333333"
       steps="2"
       helper_size="0"
       apply_no_weight="true"
       apply_with_weight="true"
       only_selected="false" /><inkscape:path-effect
       effect="bspline"
       id="path-effect2402"
       is_visible="true"
       lpeversion="1"
       weight="33.333333"
       steps="2"
       helper_size="0"
       apply_no_weight="true"
       apply_with_weight="true"
       only_selected="false" /><inkscape:path-effect
       effect="bspline"
       id="path-effect2349"
       is_visible="true"
       lpeversion="1"
       weight="33.333333"
       steps="2"
       helper_size="0"
       apply_no_weight="true"
       apply_with_weight="true"
       only_selected="false" /><inkscape:path-effect
       effect="bspline"
       id="path-effect2345"
       is_visible="true"
       lpeversion="1"
       weight="33.333333"
       steps="2"
       helper_size="0"
       apply_no_weight="true"
       apply_with_weight="true"
       only_selected="false" /><inkscape:path-effect
       effect="bspline"
       id="path-effect2341"
       is_visible="true"
       lpeversion="1"
       weight="33.333333"
       steps="2"
       helper_size="0"
       apply_no_weight="true"
       apply_with_weight="true"
       only_selected="false" /><inkscape:path-effect
       effect="bspline"
       id="path-effect1448"
       is_visible="true"
       lpeversion="1"
       weight="33.333333"
       steps="2"
       helper_size="0"
       apply_no_weight="true"
       apply_with_weight="true"
       only_selected="false" /><inkscape:path-effect
       effect="bspline"
       id="path-effect1444"
       is_visible="true"
       lpeversion="1"
       weight="33.333333"
       steps="2"
       helper_size="0"
       apply_no_weight="true"
       apply_with_weight="true"
       only_selected="false" /><inkscape:path-effect
       effect="bspline"
       id="path-effect1343"
       is_visible="true"
       lpeversion="1"
       weight="33.333333"
       steps="2"
       helper_size="0"
       apply_no_weight="true"
       apply_with_weight="true"
       only_selected="false" /><inkscape:path-effect
       effect="bspline"
       id="path-effect1337"
       is_visible="true"
       lpeversion="1"
       weight="33.333333"
       steps="2"
       helper_size="0"
       apply_no_weight="true"
       apply_with_weight="true"
       only_selected="false" /><inkscape:path-effect
       effect="bspline"
       id="path-effect1331"
       is_visible="true"
       lpeversion="1"
       weight="33.333333"
       steps="2"
       helper_size="0"
       apply_no_weight="true"
       apply_with_weight="true"
       only_selected="false" /><inkscape:path-effect
       effect="bspline"
       id="path-effect771"
       is_visible="true"
       lpeversion="1"
       weight="33.333333"
       steps="2"
       helper_size="0"
       apply_no_weight="true"
       apply_with_weight="true"
       only_selected="false" /><inkscape:path-effect
       effect="bspline"
       id="path-effect711"
       is_visible="true"
       lpeversion="1"
       weight="33.333333"
       steps="2"
       helper_size="0"
       apply_no_weight="true"
       apply_with_weight="true"
       only_selected="false" /><inkscape:path-effect
       effect="bspline"
       id="path-effect707"
       is_visible="true"
       lpeversion="1"
       weight="33.333333"
       steps="2"
       helper_size="0"
       apply_no_weight="true"
       apply_with_weight="true"
       only_selected="false" /><inkscape:path-effect
       effect="bspline"
       id="path-effect700"
       is_visible="true"
       lpeversion="1"
       weight="33.333333"
       steps="2"
       helper_size="0"
       apply_no_weight="true"
       apply_with_weight="true"
       only_selected="false" /><inkscape:path-effect
       effect="bspline"
       id="path-effect598"
       is_visible="true"
       lpeversion="1"
       weight="33.333333"
       steps="2"
       helper_size="0"
       apply_no_weight="true"
       apply_with_weight="true"
       only_selected="false" /><inkscape:path-effect
       effect="bspline"
       id="path-effect594"
       is_visible="true"
       lpeversion="1"
       weight="33.333333"
       steps="2"
       helper_size="0"
       apply_no_weight="true"
       apply_with_weight="true"
       only_selected="false" /><inkscape:path-effect
       effect="bspline"
       id="path-effect534"
       is_visible="true"
       lpeversion="1"
       weight="33.333333"
       steps="2"
       helper_size="0"
       apply_no_weight="true"
       apply_with_weight="true"
       only_selected="false" /><inkscape:path-effect
       effect="bspline"
       id="path-effect528"
       is_visible="true"
       lpeversion="1"
       weight="33.333333"
       steps="2"
       helper_size="0"
       apply_no_weight="true"
       apply_with_weight="true"
       only_selected="false" /><inkscape:path-effect
       effect="bspline"
       id="path-effect522"
       is_visible="true"
       lpeversion="1"
       weight="33.333333"
       steps="2"
       helper_size="0"
       apply_no_weight="true"
       apply_with_weight="true"
       only_selected="false" /><inkscape:path-effect
       effect="bspline"
       id="path-effect515"
       is_visible="true"
       lpeversion="1"
       weight="33.333333"
       steps="2"
       helper_size="0"
       apply_no_weight="true"
       apply_with_weight="true"
       only_selected="false" /><inkscape:path-effect
       effect="bspline"
       id="path-effect430"
       is_visible="true"
       lpeversion="1"
       weight="33.333333"
       steps="2"
       helper_size="0"
       apply_no_weight="true"
       apply_with_weight="true"
       only_selected="false" /><inkscape:path-effect
       effect="bspline"
       id="path-effect426"
       is_visible="true"
       lpeversion="1"
       weight="33.333333"
       steps="2"
       helper_size="0"
       apply_no_weight="true"
       apply_with_weight="true"
       only_selected="false" /><inkscape:path-effect
       effect="bspline"
       id="path-effect422"
       is_visible="true"
       lpeversion="1"
       weight="33.333333"
       steps="2"
       helper_size="0"
       apply_no_weight="true"
       apply_with_weight="true"
       only_selected="false" /><inkscape:path-effect
       effect="bspline"
       id="path-effect416"
       is_visible="true"
       lpeversion="1"
       weight="33.333333"
       steps="2"
       helper_size="0"
       apply_no_weight="true"
       apply_with_weight="true"
       only_selected="false" /><inkscape:path-effect
       effect="bspline"
       id="path-effect1415"
       is_visible="true"
       lpeversion="1"
       weight="33.333333"
       steps="2"
       helper_size="0"
       apply_no_weight="true"
       apply_with_weight="true"
       only_selected="false" /><inkscape:path-effect
       effect="bspline"
       id="path-effect702"
       is_visible="true"
       lpeversion="1"
       weight="33.333333"
       steps="2"
       helper_size="0"
       apply_no_weight="true"
       apply_with_weight="true"
       only_selected="false" /><inkscape:path-effect
       effect="bspline"
       id="path-effect633"
       is_visible="true"
       lpeversion="1"
       weight="33.333333"
       steps="2"
       helper_size="0"
       apply_no_weight="true"
       apply_with_weight="true"
       only_selected="false" /><inkscape:path-effect
       effect="bspline"
       id="path-effect569"
       is_visible="true"
       lpeversion="1"
       weight="33.333333"
       steps="2"
       helper_size="0"
       apply_no_weight="true"
       apply_with_weight="true"
       only_selected="false" /><inkscape:path-effect
       effect="bspline"
       id="path-effect565"
       is_visible="true"
       lpeversion="1"
       weight="33.333333"
       steps="2"
       helper_size="0"
       apply_no_weight="true"
       apply_with_weight="true"
       only_selected="false" /><inkscape:path-effect
       effect="bspline"
       id="path-effect561"
       is_visible="true"
       lpeversion="1"
       weight="33.333333"
       steps="2"
       helper_size="0"
       apply_no_weight="true"
       apply_with_weight="true"
       only_selected="false" /><inkscape:path-effect
       effect="bspline"
       id="path-effect557"
       is_visible="true"
       lpeversion="1"
       weight="33.333333"
       steps="2"
       helper_size="0"
       apply_no_weight="true"
       apply_with_weight="true"
       only_selected="false" /><inkscape:path-effect
       effect="bspline"
       id="path-effect553"
       is_visible="true"
       lpeversion="1"
       weight="33.333333"
       steps="2"
       helper_size="0"
       apply_no_weight="true"
       apply_with_weight="true"
       only_selected="false" /><inkscape:path-effect
       effect="bspline"
       id="path-effect549"
       is_visible="true"
       lpeversion="1"
       weight="33.333333"
       steps="2"
       helper_size="0"
       apply_no_weight="true"
       apply_with_weight="true"
       only_selected="false" /><inkscape:path-effect
       effect="bspline"
       id="path-effect545"
       is_visible="true"
       lpeversion="1"
       weight="33.333333"
       steps="2"
       helper_size="0"
       apply_no_weight="true"
       apply_with_weight="true"
       only_selected="false" /><inkscape:path-effect
       effect="bspline"
       id="path-effect541"
       is_visible="true"
       lpeversion="1"
       weight="33.333333"
       steps="2"
       helper_size="0"
       apply_no_weight="true"
       apply_with_weight="true"
       only_selected="false" /><inkscape:path-effect
       effect="bspline"
       id="path-effect537"
       is_visible="true"
       lpeversion="1"
       weight="33.333333"
       steps="2"
       helper_size="0"
       apply_no_weight="true"
       apply_with_weight="true"
       only_selected="false" /><inkscape:path-effect
       effect="bspline"
       id="path-effect533"
       is_visible="true"
       lpeversion="1"
       weight="33.333333"
       steps="2"
       helper_size="0"
       apply_no_weight="true"
       apply_with_weight="true"
       only_selected="false" /><inkscape:path-effect
       effect="bspline"
       id="path-effect529"
       is_visible="true"
       lpeversion="1"
       weight="33.333333"
       steps="2"
       helper_size="0"
       apply_no_weight="true"
       apply_with_weight="true"
       only_selected="false" /><inkscape:path-effect
       effect="bspline"
       id="path-effect525"
       is_visible="true"
       lpeversion="1"
       weight="33.333333"
       steps="2"
       helper_size="0"
       apply_no_weight="true"
       apply_with_weight="true"
       only_selected="false" /><inkscape:path-effect
       effect="bspline"
       id="path-effect521"
       is_visible="true"
       lpeversion="1"
       weight="33.333333"
       steps="2"
       helper_size="0"
       apply_no_weight="true"
       apply_with_weight="true"
       only_selected="false" /><inkscape:path-effect
       effect="bspline"
       id="path-effect517"
       is_visible="true"
       lpeversion="1"
       weight="33.333333"
       steps="2"
       helper_size="0"
       apply_no_weight="true"
       apply_with_weight="true"
       only_selected="false" /><inkscape:path-effect
       effect="bspline"
       id="path-effect513"
       is_visible="true"
       lpeversion="1"
       weight="33.333333"
       steps="2"
       helper_size="0"
       apply_no_weight="true"
       apply_with_weight="true"
       only_selected="false" /><inkscape:path-effect
       effect="bspline"
       id="path-effect509"
       is_visible="true"
       lpeversion="1"
       weight="33.333333"
       steps="2"
       helper_size="0"
       apply_no_weight="true"
       apply_with_weight="true"
       only_selected="false" /><inkscape:path-effect
       effect="bspline"
       id="path-effect505"
       is_visible="true"
       lpeversion="1"
       weight="33.333333"
       steps="2"
       helper_size="0"
       apply_no_weight="true"
       apply_with_weight="true"
       only_selected="false" /><inkscape:path-effect
       effect="bspline"
       id="path-effect501"
       is_visible="true"
       lpeversion="1"
       weight="33.333333"
       steps="2"
       helper_size="0"
       apply_no_weight="true"
       apply_with_weight="true"
       only_selected="false" /><inkscape:path-effect
       effect="bspline"
       id="path-effect497"
       is_visible="true"
       lpeversion="1"
       weight="33.333333"
       steps="2"
       helper_size="0"
       apply_no_weight="true"
       apply_with_weight="true"
       only_selected="false" /><inkscape:path-effect
       effect="bspline"
       id="path-effect493"
       is_visible="true"
       lpeversion="1"
       weight="33.333333"
       steps="2"
       helper_size="0"
       apply_no_weight="true"
       apply_with_weight="true"
       only_selected="false" /><clipPath
       clipPathUnits="userSpaceOnUse"
       id="clipPath2883"><ellipse
         style="display:none;fill:#ffff00;fill-opacity:0.394569;stroke:none;stroke-width:0.0558977;stroke-linecap:round;stroke-dasharray:none;stop-color:#000000"
         id="ellipse2885"
         cx="17.644512"
         cy="37.90173"
         rx="0.50237262"
         ry="0.50981319" /></clipPath><clipPath
       clipPathUnits="userSpaceOnUse"
       id="clipPath2935"><ellipse
         style="display:none;fill:#ffff00;fill-opacity:0.394569;stroke:none;stroke-width:0.0558977;stroke-linecap:round;stroke-dasharray:none;stop-color:#000000"
         id="ellipse2937"
         cx="17.644512"
         cy="37.90173"
         rx="0.50237262"
         ry="0.50981319" /></clipPath></defs><g
     inkscape:label="logo"
     inkscape:groupmode="layer"
     id="layer1"
     style="display:inline"
     transform="translate(-27.626737,49.60423)"><path
       id="path2816"
       style="fill:#ffffff;fill-opacity:1;stroke-width:0.276;stroke-linecap:round;stop-color:#000000"
       d="m 70.615328,-49.604207 c -0.152016,9.15e-4 -0.305037,0.01177 -0.453202,0.02946 l 0.04496,-0.0057 c -0.0028,2.08e-4 -0.03797,0.0014 -0.08216,0.0057 a 1,1 0 0 0 -0.04858,0.0062 c -0.01936,0.0028 -0.03998,0.0072 -0.04341,0.0078 -0.09388,0.01435 -0.03986,0.0071 -0.03101,0.0057 -0.09669,0.01487 -0.186546,0.03266 -0.275436,0.05271 -0.03786,0.0087 -0.104641,0.0251 -0.163814,0.04134 -0.02525,0.007 -0.07073,0.01788 -0.09974,0.02687 -0.113908,0.03395 -0.02944,0.01017 -0.03514,0.01189 -0.07986,0.025 -0.163784,0.05404 -0.24598,0.08578 -0.02989,0.01148 -0.05298,0.02222 -0.05684,0.02377 -0.0092,0.0033 -0.02169,0.0067 -0.04858,0.01757 a 1,1 0 0 0 -0.01189,0.0057 c -0.04917,0.02059 -0.111011,0.04719 -0.1757,0.07803 a 1,1 0 0 0 -0.04134,0.01964 c -0.06521,0.03223 -0.126237,0.06638 -0.185518,0.09973 -0.205048,0.106375 -0.0155,0.0098 -0.0155,0.0098 a 1,1 0 0 0 -0.02946,0.0155 c 0,0 0.0047,-0.0042 -0.02325,0.01188 a 1,1 0 0 0 -0.01189,0.0078 c -0.06105,0.0363 -0.136154,0.08165 -0.205155,0.128674 -0.0169,0.01136 -0.03092,0.02229 -0.03307,0.02377 -0.05804,0.03981 -0.126455,0.08732 -0.197404,0.142627 a 1,1 0 0 0 -0.02325,0.01912 c -0.109039,0.09038 -0.07175,0.06061 -0.04134,0.03617 -0.0571,0.04659 -0.115851,0.09707 -0.17725,0.153479 0.0032,-0.0028 -0.0021,0.0021 -0.0021,0.0021 a 1,1 0 0 0 -0.01189,0.0098 c -0.04163,0.03848 -0.08846,0.08389 -0.138493,0.134876 a 1,1 0 0 0 -0.01189,0.01344 c -0.0076,0.008 -0.02818,0.02838 -0.04858,0.05064 -0.0092,0.0098 -0.01861,0.01957 -0.03152,0.03359 -0.06021,0.06591 -0.115571,0.129085 -0.171566,0.198955 -0.01296,0.01638 -0.0239,0.03056 -0.02584,0.03307 l 0.01189,-0.01137 c -0.02183,0.02721 -0.04382,0.05226 -0.06615,0.08165 a 1,1 0 0 0 -0.0083,0.01189 c -0.01621,0.02193 -0.04038,0.05653 -0.06408,0.08992 -0.06225,0.08281 -0.0062,0.0078 -0.0062,0.0078 -0.0082,0.01163 -0.01298,0.01944 -0.02119,0.03152 a 1,1 0 0 0 -0.0062,0.0057 c -0.04569,0.06731 -0.09534,0.147493 -0.146244,0.234611 -0.03652,0.06309 -0.0217,0.03669 -0.0217,0.03669 -0.0024,0.0035 0.003,-0.0086 -0.01344,0.01964 a 1,1 0 0 0 -0.01189,0.0217 c -0.03488,0.06344 -0.06583,0.12427 -0.09353,0.181384 -0.01404,0.02891 -0.02577,0.05897 -0.02739,0.06253 -0.03634,0.07702 -0.07077,0.154282 -0.101802,0.232544 a 1,1 0 0 0 -0.01912,0.05271 l -0.0041,0.0155 -0.08423,0.245979 -0.607198,1.824178 -1.55081,4.65243 v -1.333769 -1.999878 a 1,1 0 0 0 -5.17e-4,-0.0047 v -0.494543 a 1,1 0 0 0 5.17e-4,-0.001 v -1.999878 a 1,1 0 0 0 -5.17e-4,-0.0047 v -0.494543 a 1,1 0 0 0 5.17e-4,-0.001 v -1.999878 a 1,1 0 0 0 -5.17e-4,-0.0093 v -0.990638 h -0.999422 -5.17e-4 -5.999634 c -2.146847,-1.31e-4 -3.939128,1.186387 -4.998144,2.878894 v -1.878438 -5.17e-4 -0.999939 h -0.999939 -5.17e-4 -5.999117 c -2.469764,-1.51e-4 -4.57851,1.491411 -5.498372,3.620968 -0.919859,-2.129557 -3.028137,-3.621119 -5.497856,-3.620968 h -4.000273 -1.999361 -1.000456 v 0.999939 2.000395 10.499618 2.000394 0.999939 h 1.000456 1.999878 3.999756 c 2.469765,1.53e-4 4.57851,-1.491411 5.498372,-3.620967 0.919859,2.129556 3.028137,3.62112 5.497856,3.620967 h 6.000151 0.999939 v -0.999939 -1.878955 c 1.059011,1.692508 2.851336,2.879027 4.998144,2.878894 h 3.357935 0.641821 4.000273 0.499711 1.999878 1.500166 2.652035 3.348116 1.999878 1.386479 l -0.433566,-1.303796 a 1,1 0 0 0 -0.0036,-0.01292 l -0.666109,-1.999878 -2.833936,-8.501807 -0.601513,-1.798856 -0.08992,-0.273369 a 1,1 0 0 0 -0.03152,-0.05891 l 0.01189,0.0083 c -0.02491,-0.06389 -0.05723,-0.147855 -0.101285,-0.242362 -0.01174,-0.02476 -0.03019,-0.06044 -0.04703,-0.09405 l -0.01188,-0.02325 c -0.01071,-0.02167 -0.02106,-0.04502 -0.02894,-0.06046 a 1,1 0 0 0 -0.01964,-0.03514 c -0.01787,-0.03171 -0.01649,-0.02671 -0.01964,-0.03152 l -0.01189,-0.02119 c -0.01707,-0.03033 -0.03295,-0.05938 -0.04858,-0.08578 -0.02539,-0.04257 -0.05913,-0.09795 -0.08992,-0.144694 -0.01106,-0.01714 -0.02005,-0.02891 -0.02945,-0.04289 l -0.0078,-0.01189 c -0.003,-0.0044 -0.0074,-0.01193 -0.0098,-0.0155 -0.003,-0.0048 0.0018,6.06e-4 -0.0036,-0.0078 a 1,1 0 0 0 -0.0217,-0.03152 c -0.09168,-0.130923 -0.190853,-0.256463 -0.29869,-0.376721 a 1,1 0 0 0 -0.02377,-0.02377 v -0.0016 c -0.02652,-0.02752 -0.02325,-0.02377 -0.02325,-0.02377 -0.01087,-0.01195 -0.01886,-0.02238 -0.03101,-0.03514 -0.04843,-0.05113 -0.09731,-0.0987 -0.141077,-0.14056 -0.02026,-0.01939 -0.03844,-0.0356 -0.05271,-0.04857 -0.0065,-0.0062 -0.03002,-0.02931 -0.05633,-0.05323 a 1,1 0 0 0 -0.02377,-0.01912 c -0.02904,-0.0248 -0.05842,-0.05071 -0.08785,-0.07442 l -0.0155,-0.01188 c -0.01498,-0.01209 -0.03086,-0.02592 -0.03721,-0.03101 -0.06977,-0.0558 -0.146826,-0.113394 -0.234094,-0.173633 -0.08343,-0.05657 -0.161731,-0.105268 -0.236678,-0.148828 -0.01615,-0.0093 -0.03042,-0.01547 -0.04444,-0.02325 l -0.0083,-0.0041 c -0.0041,-0.0023 -0.01,-0.0059 -0.01344,-0.0078 -0.02693,-0.01564 -0.05821,-0.0357 -0.09353,-0.05478 a 1,1 0 0 0 -0.03359,-0.0155 c -0.02163,-0.01064 -0.03216,-0.01541 -0.04496,-0.02119 l -0.02325,-0.01189 c -0.01647,-0.0084 -0.03221,-0.01707 -0.05839,-0.02946 -0.0629,-0.02943 -0.12479,-0.05536 -0.185519,-0.0801 l -0.01189,-0.0057 c -0.0052,-0.0023 -0.01577,-0.0062 -0.02946,-0.01189 l -0.01344,-0.0057 c -0.01086,-0.0044 -0.02475,-0.0095 -0.02532,-0.0098 a 1,1 0 0 0 -0.02377,-0.0098 c -0.148723,-0.05607 -0.303581,-0.104036 -0.460954,-0.142627 a 1,1 0 0 0 -0.02325,-0.0057 c -0.03987,-0.0087 -0.03845,-0.0077 -0.03101,-0.0062 -0.0053,-0.0012 -0.03071,-0.0068 -0.05478,-0.01188 l -0.01602,-0.0036 c -0.06548,-0.01384 -0.129509,-0.02551 -0.189136,-0.03514 -0.009,-0.0015 -0.0358,-0.0077 -0.06253,-0.01188 l -0.0155,-0.0021 c -0.02864,-0.0042 -0.05763,-0.0071 -0.06253,-0.0078 a 1,1 0 0 0 -0.06459,-0.0057 1,1 0 0 0 -0.01344,-0.0021 c -0.01982,-0.0012 -0.04122,-0.0016 -0.05116,-0.0021 -0.121569,-0.01197 -0.24148,-0.02085 -0.363285,-0.0217 a 1,1 0 0 0 -0.01344,0 z m 0.0078,3.887618 a 1,1 0 0 0 0.0078,0 c -0.0038,-5.35e-4 0.0041,0.0018 0.0021,0.0016 z"
       inkscape:label="background" /><path
       id="path2153"
       style="fill:#0060a8;fill-opacity:1;stroke-width:0.276;stroke-linecap:round;stop-color:#000000"
       d="m 28.626676,-48.604268 v 5.16e-4 1.999878 10.499618 1.999878 h 2.000395 3.999756 a 4.995254,4.9999995 0 0 0 4.995561,-4.999695 h 0.0026 v -4.499984 h -0.0026 a 4.995254,4.9999995 0 0 0 -4.995561,-4.999695 h -3.999756 v -5.16e-4 z m 16.996379,5.16e-4 a 4.995254,4.9999995 0 0 0 -4.995561,4.999695 h -0.0026 v 4.499984 h 0.0026 a 4.995254,4.9999995 0 0 0 4.995561,4.999695 h 5.999634 v -2.000395 h -5.999634 v 5.17e-4 a 3,3 0 0 1 -0.276986,-0.01292 3,3 0 0 1 -0.274402,-0.03824 3,3 0 0 1 -0.26975,-0.06304 3,3 0 0 1 -0.262517,-0.08837 3,3 0 0 1 -0.253731,-0.111621 3,3 0 0 1 -0.241846,-0.134875 3,3 0 0 1 -0.228926,-0.15658 3,3 0 0 1 -0.212907,-0.17725 3,3 0 0 1 -0.196371,-0.195854 3,3 0 0 1 -0.176733,-0.212907 3,3 0 0 1 -0.15658,-0.228926 3,3 0 0 1 -0.134875,-0.241846 3,3 0 0 1 -0.112138,-0.253731 3,3 0 0 1 -0.08785,-0.262517 3,3 0 0 1 -0.06356,-0.269751 3,3 0 0 1 -0.03824,-0.274401 3,3 0 0 1 -0.01292,-0.276986 h 0.0021 v -4.499984 h -0.0021 a 3,3 0 0 1 0.01292,-0.276985 3,3 0 0 1 0.03824,-0.274402 3,3 0 0 1 0.06356,-0.269751 3,3 0 0 1 0.08785,-0.262517 3,3 0 0 1 0.112138,-0.253731 3,3 0 0 1 0.134875,-0.241846 3,3 0 0 1 0.15658,-0.228926 3,3 0 0 1 0.176733,-0.212907 3,3 0 0 1 0.196371,-0.195854 3,3 0 0 1 0.212907,-0.17725 3,3 0 0 1 0.228926,-0.15658 3,3 0 0 1 0.241846,-0.134875 3,3 0 0 1 0.253731,-0.111621 3,3 0 0 1 0.262517,-0.08837 3,3 0 0 1 0.26975,-0.06305 3,3 0 0 1 0.274402,-0.03824 3,3 0 0 1 0.276986,-0.01292 h 5.999634 v -1.999878 z m 11.997201,0 a 4.995254,4.9999995 0 0 0 -4.995561,4.999695 h -0.0021 v 4.499984 h 0.0021 a 4.995254,4.9999995 0 0 0 4.995561,4.999695 h 4.000272 1.999878 v -1.999878 -5.499406 -2.000395 h -1.999878 -4.000272 v 2.000395 h 4.000272 v 5.499406 h -4.000272 a 3,3 0 0 1 -0.276986,-0.01292 3,3 0 0 1 -0.274402,-0.03824 3,3 0 0 1 -0.269751,-0.06304 3,3 0 0 1 -0.262516,-0.08837 3,3 0 0 1 -0.253732,-0.111621 3,3 0 0 1 -0.241845,-0.134875 3,3 0 0 1 -0.228927,-0.15658 3,3 0 0 1 -0.212907,-0.17725 3,3 0 0 1 -0.19637,-0.195854 3,3 0 0 1 -0.176734,-0.212907 3,3 0 0 1 -0.156579,-0.228926 3,3 0 0 1 -0.134876,-0.241846 3,3 0 0 1 -0.112138,-0.253731 3,3 0 0 1 -0.08785,-0.262517 3,3 0 0 1 -0.06356,-0.269751 3,3 0 0 1 -0.03824,-0.274401 3,3 0 0 1 -0.01292,-0.276986 h 0.0026 v -4.499984 h -0.0026 a 3,3 0 0 1 0.01292,-0.276985 3,3 0 0 1 0.03824,-0.274402 3,3 0 0 1 0.06356,-0.269751 3,3 0 0 1 0.08785,-0.262517 3,3 0 0 1 0.112138,-0.253731 3,3 0 0 1 0.134876,-0.241846 3,3 0 0 1 0.156579,-0.228926 3,3 0 0 1 0.176734,-0.212907 3,3 0 0 1 0.19637,-0.195854 3,3 0 0 1 0.212907,-0.17725 3,3 0 0 1 0.228927,-0.15658 3,3 0 0 1 0.241845,-0.134875 3,3 0 0 1 0.253732,-0.111621 3,3 0 0 1 0.262516,-0.08837 3,3 0 0 1 0.269751,-0.06305 3,3 0 0 1 0.274402,-0.03824 3,3 0 0 1 0.276986,-0.01292 v 5.17e-4 h 6.00015 v -2.000395 z m 6.00015,14.499374 h 2.000395 l 3.060795,-9.183936 0.438733,-1.316199 0.395841,-1.187524 0.10387,-0.311609 10e-4,-0.0031 h 5.17e-4 a 1.125,1.125 0 0 1 0.0031,-0.0072 1.125,1.125 0 0 1 0.07028,-0.116272 1.125,1.125 0 0 1 0.08372,-0.10697 1.125,1.125 0 0 1 0.09612,-0.09612 1.125,1.125 0 0 1 0.10697,-0.08372 1.125,1.125 0 0 1 0.116272,-0.07028 1.125,1.125 0 0 1 0.124023,-0.05581 1.125,1.125 0 0 1 0.129708,-0.04031 1.125,1.125 0 0 1 0.133842,-0.02481 1.125,1.125 0 0 1 0.135392,-0.0078 1.125,1.125 0 0 1 0.04548,5.17e-4 1.125,1.125 0 0 1 0.04496,0.0031 1.125,1.125 0 0 1 0.04496,0.0041 1.125,1.125 0 0 1 0.04496,0.0067 1.125,1.125 0 0 1 0.04444,0.0083 1.125,1.125 0 0 1 0.04444,0.0098 1.125,1.125 0 0 1 0.04393,0.01137 1.125,1.125 0 0 1 0.04289,0.01395 1.125,1.125 0 0 1 0.04289,0.01499 1.125,1.125 0 0 1 0.04186,0.01705 1.125,1.125 0 0 1 0.04134,0.0186 1.125,1.125 0 0 1 0.04082,0.02015 1.125,1.125 0 0 1 0.03979,0.0217 1.125,1.125 0 0 1 0.03876,0.02377 1.125,1.125 0 0 1 0.03772,0.02481 1.125,1.125 0 0 1 0.03669,0.02636 1.125,1.125 0 0 1 0.03566,0.0279 1.125,1.125 0 0 1 0.03462,0.02946 1.125,1.125 0 0 1 0.03307,0.03049 1.125,1.125 0 0 1 0.03204,0.03204 1.125,1.125 0 0 1 0.03101,0.03359 1.125,1.125 0 0 1 0.02894,0.03462 1.125,1.125 0 0 1 0.02791,0.03566 1.125,1.125 0 0 1 0.02687,0.03669 1.125,1.125 0 0 1 0.02481,0.03772 1.125,1.125 0 0 1 0.02325,0.03876 1.125,1.125 0 0 1 0.02222,0.03979 1.125,1.125 0 0 1 0.0036,0.0072 l 0.109038,0.327628 0.391707,1.174605 0.438733,1.316199 2.394169,7.184058 h -5.333525 v 1.999878 h 6.000151 2.000395 l -0.666626,-1.999878 -2.833419,-8.500257 -0.601514,-1.804024 -0.09043,-0.272335 a 3.0125,3.0125 0 0 0 -10e-4,-0.0016 3.0125,3.0125 0 0 0 -0.07596,-0.177767 3.0125,3.0125 0 0 0 -0.04289,-0.08682 3.0125,3.0125 0 0 0 -0.03101,-0.06253 3.0125,3.0125 0 0 0 -0.02222,-0.03876 3.0125,3.0125 0 0 0 -0.04548,-0.07958 3.0125,3.0125 0 0 0 -0.07028,-0.112138 3.0125,3.0125 0 0 0 -0.03514,-0.05323 3.0125,3.0125 0 0 0 -0.0155,-0.02429 3.0125,3.0125 0 0 0 -0.224792,-0.283187 3.0125,3.0125 0 0 0 -0.01809,-0.0186 3.0125,3.0125 0 0 0 -0.04289,-0.04599 3.0125,3.0125 0 0 0 -0.104904,-0.10542 3.0125,3.0125 0 0 0 -0.04857,-0.04548 3.0125,3.0125 0 0 0 -0.04238,-0.03927 3.0125,3.0125 0 0 0 -0.077,-0.06356 3.0125,3.0125 0 0 0 -0.03927,-0.03204 3.0125,3.0125 0 0 0 -0.169499,-0.126091 3.0125,3.0125 0 0 0 -0.176733,-0.111104 3.0125,3.0125 0 0 0 -0.04858,-0.02739 3.0125,3.0125 0 0 0 -0.08475,-0.04754 3.0125,3.0125 0 0 0 -0.05168,-0.02481 3.0125,3.0125 0 0 0 -0.05943,-0.02894 3.0125,3.0125 0 0 0 -0.148311,-0.0646 3.0125,3.0125 0 0 0 -0.04031,-0.01654 3.0125,3.0125 0 0 0 -0.02997,-0.0124 3.0125,3.0125 0 0 0 -0.345199,-0.10697 3.0125,3.0125 0 0 0 -0.02894,-0.0062 3.0125,3.0125 0 0 0 -0.05219,-0.01085 3.0125,3.0125 0 0 0 -0.156062,-0.02946 3.0125,3.0125 0 0 0 -0.06046,-0.0093 3.0125,3.0125 0 0 0 -0.05839,-0.0088 3.0125,3.0125 0 0 0 -0.03772,-0.0021 3.0125,3.0125 0 0 0 -0.322978,-0.01964 3.0125,3.0125 0 0 0 -0.338997,0.02119 3.0125,3.0125 0 0 0 -0.06046,0.0052 3.0125,3.0125 0 0 0 -0.03721,0.0057 3.0125,3.0125 0 0 0 -0.02946,0.0047 3.0125,3.0125 0 0 0 -0.204639,0.03876 3.0125,3.0125 0 0 0 -0.120923,0.03049 3.0125,3.0125 0 0 0 -0.08113,0.02377 3.0125,3.0125 0 0 0 -0.02222,0.0067 3.0125,3.0125 0 0 0 -0.185002,0.0646 3.0125,3.0125 0 0 0 -0.04341,0.01705 3.0125,3.0125 0 0 0 -0.04703,0.0186 3.0125,3.0125 0 0 0 -0.132808,0.05943 3.0125,3.0125 0 0 0 -0.01447,0.0078 3.0125,3.0125 0 0 0 -0.18035,0.0956 3.0125,3.0125 0 0 0 -0.01189,0.0062 3.0125,3.0125 0 0 0 -0.01809,0.01034 3.0125,3.0125 0 0 0 -0.156579,0.09974 3.0125,3.0125 0 0 0 -0.02584,0.01757 3.0125,3.0125 0 0 0 -0.148311,0.108521 3.0125,3.0125 0 0 0 -0.0124,0.01034 3.0125,3.0125 0 0 0 -0.02222,0.01809 3.0125,3.0125 0 0 0 -0.148311,0.12764 3.0125,3.0125 0 0 0 -0.0098,0.0088 3.0125,3.0125 0 0 0 -0.10542,0.10232 3.0125,3.0125 0 0 0 -0.03566,0.03824 3.0125,3.0125 0 0 0 -0.02945,0.03152 3.0125,3.0125 0 0 0 -0.126091,0.147278 3.0125,3.0125 0 0 0 -0.0186,0.02377 3.0125,3.0125 0 0 0 -0.04961,0.06356 3.0125,3.0125 0 0 0 -0.06925,0.09767 3.0125,3.0125 0 0 0 -0.0047,0.0062 3.0125,3.0125 0 0 0 -0.10852,0.172082 3.0125,3.0125 0 0 0 -0.01654,0.02894 3.0125,3.0125 0 0 0 -0.0186,0.03152 3.0125,3.0125 0 0 0 -0.0708,0.136942 3.0125,3.0125 0 0 0 -0.02377,0.05013 3.0125,3.0125 0 0 0 -0.07597,0.175183 l -0.0062,0.01757 -0.08113,0.243913 -0.608748,1.825728 z M 30.627071,-46.603874 h 3.999756 a 3,3 0 0 1 0.276986,0.01292 3,3 0 0 1 0.274402,0.03824 3,3 0 0 1 0.26975,0.06305 3,3 0 0 1 0.262517,0.08837 3,3 0 0 1 0.253731,0.111621 3,3 0 0 1 0.241846,0.134875 3,3 0 0 1 0.228926,0.15658 3,3 0 0 1 0.212907,0.17725 3,3 0 0 1 0.196371,0.195854 3,3 0 0 1 0.176733,0.212907 3,3 0 0 1 0.15658,0.228926 3,3 0 0 1 0.134875,0.241846 3,3 0 0 1 0.112138,0.253731 3,3 0 0 1 0.08785,0.262517 3,3 0 0 1 0.06356,0.269751 3,3 0 0 1 0.03824,0.274402 3,3 0 0 1 0.01292,0.276985 h -0.0021 v 4.499984 h 0.0021 a 3,3 0 0 1 -0.01292,0.276986 3,3 0 0 1 -0.03824,0.274401 3,3 0 0 1 -0.06356,0.269751 3,3 0 0 1 -0.08785,0.262517 3,3 0 0 1 -0.112138,0.253731 3,3 0 0 1 -0.134875,0.241846 3,3 0 0 1 -0.15658,0.228926 3,3 0 0 1 -0.176733,0.212907 3,3 0 0 1 -0.196371,0.195854 3,3 0 0 1 -0.212907,0.17725 3,3 0 0 1 -0.228926,0.15658 3,3 0 0 1 -0.241846,0.134875 3,3 0 0 1 -0.253731,0.111621 3,3 0 0 1 -0.262517,0.08837 3,3 0 0 1 -0.26975,0.06304 3,3 0 0 1 -0.274402,0.03824 3,3 0 0 1 -0.276986,0.01292 h -3.999756 z m 39.993941,0.372587 a 0.63999999,0.63999999 0 0 0 -0.142627,0.01602 0.63999999,0.63999999 0 0 0 -0.134875,0.04754 0.63999999,0.63999999 0 0 0 -0.12144,0.07596 0.63999999,0.63999999 0 0 0 -0.101285,0.101286 0.63999999,0.63999999 0 0 0 -0.07648,0.121439 0.63999999,0.63999999 0 0 0 -0.04444,0.127641 l -0.0026,0.0083 -0.376205,1.128613 -3.500044,10.500135 h 1.999878 l 1.500166,-4.499984 0.999939,-3.000334 0.999939,3.000334 H 69.62106 v 1.999878 h 2.666504 2.000395 l -0.666626,-1.999878 h -5.17e-4 l -1.999878,-6.000151 h 5.17e-4 l -0.376721,-1.12913 -10e-4,-0.0031 -0.03721,-0.111621 a 0.63999999,0.63999999 0 0 0 -0.0088,-0.02067 0.63999999,0.63999999 0 0 0 -0.02222,-0.04237 0.63999999,0.63999999 0 0 0 -0.02584,-0.04031 0.63999999,0.63999999 0 0 0 -0.02842,-0.03876 0.63999999,0.63999999 0 0 0 -0.03101,-0.03617 0.63999999,0.63999999 0 0 0 -0.03411,-0.03359 0.63999999,0.63999999 0 0 0 -0.03617,-0.03152 0.63999999,0.63999999 0 0 0 -0.03824,-0.02842 0.63999999,0.63999999 0 0 0 -0.04082,-0.02532 0.63999999,0.63999999 0 0 0 -0.04237,-0.02222 0.63999999,0.63999999 0 0 0 -0.04393,-0.01912 0.63999999,0.63999999 0 0 0 -0.04496,-0.01602 0.63999999,0.63999999 0 0 0 -0.04599,-0.0124 0.63999999,0.63999999 0 0 0 -0.04702,-0.0088 0.63999999,0.63999999 0 0 0 -0.04754,-0.0057 0.63999999,0.63999999 0 0 0 -0.04806,-0.0016 z m -39.49423,0.127124 v 1.999878 5.499923 1.999878 5.17e-4 h 1.999878 v -5.17e-4 h 1.500167 a 2.5,2.4999998 0 0 0 2.500106,-2.500106 v -4.499984 a 2.5,2.4999998 0 0 0 -2.500106,-2.499589 H 33.12666 Z m 14.496273,0 a 2.5,2.4999998 0 0 0 -2.500106,2.500106 v 1.999878 h 7.00009 v -1.999878 h -5.000212 a 0.5,0.5 0 0 1 0.500228,-0.500228 h 5.999634 v -1.999878 z m 11.997201,5.17e-4 a 2.5,2.4999998 0 0 0 -2.500106,2.500106 v 4.499467 a 2.5,2.4999998 0 0 0 2.500106,2.500106 h 1.500166 1.999878 v -1.999878 -0.500228 -1.999878 h -1.999878 -1.500166 v 1.999878 h 1.500166 v 0.500228 h -1.500166 a 0.5,0.5 0 0 1 -0.500228,-0.500228 v -4.499984 a 0.5,0.5 0 0 1 0.500228,-0.499711 h 6.00015 v -1.999878 z m -24.493596,1.999361 h 1.500167 a 0.5,0.5 0 0 1 0.500228,0.500228 v 4.499467 a 0.5,0.5 0 0 1 -0.500228,0.500228 H 33.12666 Z m 9.996289,2.999817 v 1.999878 5.17e-4 a 2.5,2.4999998 0 0 0 2.500106,2.499589 h 5.999634 v -1.999878 h -5.999634 a 0.5,0.5 0 0 1 -0.500228,-0.499711 h 5.000212 v -2.000395 z"
       inkscape:label="foreground" /></g></svg>
